<svg width="18" height="18" viewBox="0 0 18 18" fill="none" xmlns="http://www.w3.org/2000/svg">
<path d="M9.60039 6.59844C9.60039 6.26707 9.33176 5.99844 9.00039 5.99844C8.66902 5.99844 8.40039 6.26707 8.40039 6.59844L8.40039 8.39846H6.60039C6.26902 8.39846 6.00039 8.66709 6.00039 8.99846C6.00039 9.32983 6.26902 9.59846 6.60039 9.59846H8.40039V11.3984C8.40039 11.7298 8.66902 11.9984 9.00039 11.9984C9.33176 11.9984 9.60039 11.7298 9.60039 11.3984V9.59846H11.4004C11.7318 9.59846 12.0004 9.32983 12.0004 8.99846C12.0004 8.66709 11.7318 8.39846 11.4004 8.39846H9.60039V6.59844Z" fill="#413B89"/>
<path fill-rule="evenodd" clip-rule="evenodd" d="M9.00039 0.398438C4.25074 0.398438 0.400391 4.24879 0.400391 8.99844C0.400391 13.7481 4.25074 17.5984 9.00039 17.5984C13.75 17.5984 17.6004 13.7481 17.6004 8.99844C17.6004 4.24879 13.75 0.398438 9.00039 0.398438ZM1.60039 8.99844C1.60039 4.91153 4.91348 1.59844 9.00039 1.59844C13.0873 1.59844 16.4004 4.91153 16.4004 8.99844C16.4004 13.0853 13.0873 16.3984 9.00039 16.3984C4.91348 16.3984 1.60039 13.0853 1.60039 8.99844Z" fill="#413B89"/>
</svg>
