<svg width="31" height="25" viewBox="0 0 31 25" fill="none" xmlns="http://www.w3.org/2000/svg">
<g clip-path="url(#clip0_111_1621)">
<path d="M22.148 11.6153C21.964 11.7901 21.7296 11.9092 21.4744 11.9574C21.2192 12.0057 20.9547 11.9809 20.7144 11.8863C20.474 11.7917 20.2685 11.6314 20.124 11.4259C19.9795 11.2203 19.9023 10.9786 19.9023 10.7314C19.9023 10.4841 19.9795 10.2424 20.124 10.0368C20.2685 9.83126 20.474 9.67104 20.7144 9.57643C20.9547 9.4818 21.2192 9.45705 21.4744 9.50529C21.7296 9.55352 21.964 9.67257 22.148 9.84741C22.3946 10.0819 22.5333 10.3998 22.5333 10.7314C22.5333 11.0629 22.3946 11.3809 22.148 11.6153ZM17.5567 20.625C13.3663 20.6206 9.20282 18.3362 5.13324 13.8208C4.33482 14.8142 3.53719 15.9012 2.74032 17.0819C2.61469 17.2677 2.41647 17.3988 2.18927 17.4459C1.96206 17.4929 1.72448 17.4524 1.52875 17.333C1.47516 17.3007 1.4255 17.263 1.3807 17.2203C1.23972 17.0859 1.15128 16.9096 1.12999 16.7209C1.10871 16.5321 1.15586 16.3422 1.26365 16.1824C2.16904 14.8398 3.07984 13.6113 3.99607 12.4971C3.08087 11.3828 2.17084 10.1551 1.26597 8.81393C1.14188 8.62785 1.10036 8.40266 1.15049 8.18758C1.20062 7.9725 1.33832 7.78503 1.53349 7.66615C1.72866 7.54729 1.96541 7.50668 2.192 7.55321C2.41859 7.59975 2.61656 7.72965 2.74265 7.9145C3.539 9.0936 4.33586 10.1799 5.13324 11.1733C9.20282 6.65929 13.3685 4.3787 17.5583 4.37501C24.351 4.36544 28.7779 10.3874 29.5956 11.5947C29.778 11.8646 29.875 12.1785 29.875 12.4993C29.875 12.82 29.778 13.134 29.5956 13.4038C28.7779 14.6112 24.3517 20.6339 17.5567 20.625ZM17.0055 18.9389C15.5575 17.073 14.7766 14.8154 14.7775 12.4971C14.7784 10.1787 15.5609 7.92159 17.0103 6.05673C13.4506 6.26151 9.84853 8.42351 6.24714 12.4971C9.84698 16.5735 13.4491 18.7355 17.0079 18.9411L17.0055 18.9389ZM28.1205 12.5015C27.125 11.0623 25.9113 9.7708 24.5184 8.66881C22.7945 7.3252 21.0124 6.4906 19.1922 6.17975C17.4844 7.88383 16.5314 10.1468 16.5309 12.5002C16.5303 14.8535 17.4821 17.1169 19.1891 18.8217C21.0085 18.5101 22.7929 17.6792 24.5153 16.3326C25.9078 15.2301 27.1225 13.9393 28.1205 12.5015Z" fill="#5B1CD4"/>
</g>
<defs>
<clipPath id="clip0_111_1621">
<rect width="30" height="25" fill="white" transform="translate(0.5)"/>
</clipPath>
</defs>
</svg>
