<svg width="24" height="24" viewBox="0 0 24 24" fill="none" xmlns="http://www.w3.org/2000/svg">
<path d="M18.7993 7.20312H5.19922" stroke="#131119" stroke-width="1.2" stroke-linecap="round"/>
<path d="M17.4665 9.20312L17.0986 14.7224C16.957 16.8463 16.8862 17.9083 16.1942 18.5557C15.5022 19.2031 14.4379 19.2031 12.3092 19.2031H11.6905C9.56188 19.2031 8.49756 19.2031 7.80556 18.5557C7.11355 17.9083 7.04275 16.8463 6.90116 14.7224L6.5332 9.20312" stroke="#131119" stroke-width="1.2" stroke-linecap="round"/>
<path opacity="0.5" d="M10 11.2031L10.4 15.2031" stroke="#131119" stroke-width="1.2" stroke-linecap="round"/>
<path opacity="0.5" d="M13.9996 11.2031L13.5996 15.2031" stroke="#131119" stroke-width="1.2" stroke-linecap="round"/>
<path opacity="0.5" d="M7.59961 7.19688C7.64431 7.19688 7.66666 7.19688 7.68693 7.19636C8.34568 7.17967 8.92683 6.7608 9.15098 6.14113C9.15788 6.12207 9.16495 6.10086 9.17908 6.05845L9.25675 5.82545C9.32306 5.62654 9.35621 5.52708 9.40018 5.44264C9.57562 5.10573 9.9002 4.87178 10.2753 4.81189C10.3693 4.79688 10.4741 4.79688 10.6838 4.79688H13.3154C13.5251 4.79688 13.6299 4.79688 13.7239 4.81189C14.099 4.87178 14.4236 5.10573 14.599 5.44264C14.643 5.52708 14.6762 5.62654 14.7425 5.82545L14.8201 6.05845C14.8343 6.10081 14.8413 6.12208 14.8482 6.14113C15.0724 6.7608 15.6535 7.17967 16.3123 7.19636C16.3326 7.19688 16.3549 7.19688 16.3996 7.19688" stroke="#131119" stroke-width="1.2"/>
</svg>
