<svg width="18" height="17" viewBox="0 0 18 17" fill="none" xmlns="http://www.w3.org/2000/svg">
<path fill-rule="evenodd" clip-rule="evenodd" d="M16.1296 3.11109C16.3992 3.51465 16.3992 4.07643 16.3992 5.2V15.4H16.7992C17.1306 15.4 17.3992 15.6686 17.3992 16C17.3992 16.3314 17.1306 16.6 16.7992 16.6H0.799219C0.467848 16.6 0.199219 16.3314 0.199219 16C0.199219 15.6686 0.467848 15.4 0.799219 15.4H1.19922V5.2C1.19922 4.07643 1.19922 3.51465 1.46887 3.11109C1.5856 2.93638 1.7356 2.78638 1.91031 2.66965C2.26329 2.4338 2.73732 2.40424 3.60244 2.40053C3.59915 2.63364 3.59918 2.87724 3.59921 3.1284L3.59922 3.2V4.2H2.79922C2.46785 4.2 2.19922 4.46863 2.19922 4.8C2.19922 5.13137 2.46785 5.4 2.79922 5.4H3.59922V6.6H2.79922C2.46785 6.6 2.19922 6.86863 2.19922 7.2C2.19922 7.53137 2.46785 7.8 2.79922 7.8H3.59922V9H2.79922C2.46785 9 2.19922 9.26863 2.19922 9.6C2.19922 9.93137 2.46785 10.2 2.79922 10.2H3.59922V15.4H4.79922V3.2C4.79922 1.69151 4.79922 0.937258 5.26785 0.468629C5.73648 0 6.49072 0 7.99922 0H9.59922C11.1077 0 11.862 0 12.3306 0.468629C12.7992 0.937258 12.7992 1.69151 12.7992 3.2V15.4H13.9992V10.2H14.7992C15.1306 10.2 15.3992 9.93137 15.3992 9.6C15.3992 9.26863 15.1306 9 14.7992 9H13.9992V7.8H14.7992C15.1306 7.8 15.3992 7.53137 15.3992 7.2C15.3992 6.86863 15.1306 6.6 14.7992 6.6H13.9992V5.4H14.7992C15.1306 5.4 15.3992 5.13137 15.3992 4.8C15.3992 4.46863 15.1306 4.2 14.7992 4.2H13.9992V3.2L13.9992 3.12841C13.9993 2.87724 13.9993 2.63365 13.996 2.40053C14.8611 2.40424 15.3352 2.43379 15.6881 2.66965C15.8628 2.78638 16.0128 2.93638 16.1296 3.11109ZM9.39922 13.6C9.39922 13.2686 9.13059 13 8.79922 13C8.46785 13 8.19922 13.2686 8.19922 13.6V15.4H9.39922V13.6ZM6.59922 10.4C6.59922 10.0686 6.86785 9.8 7.19922 9.8H10.3992C10.7306 9.8 10.9992 10.0686 10.9992 10.4C10.9992 10.7314 10.7306 11 10.3992 11H7.19922C6.86785 11 6.59922 10.7314 6.59922 10.4ZM7.19922 7.4C6.86785 7.4 6.59922 7.66863 6.59922 8C6.59922 8.33137 6.86785 8.6 7.19922 8.6H10.3992C10.7306 8.6 10.9992 8.33137 10.9992 8C10.9992 7.66863 10.7306 7.4 10.3992 7.4H7.19922ZM6.79922 4C6.79922 2.78497 7.78419 1.8 8.99922 1.8C10.2142 1.8 11.1992 2.78497 11.1992 4C11.1992 5.21503 10.2142 6.2 8.99922 6.2C7.78419 6.2 6.79922 5.21503 6.79922 4ZM7.99922 4C7.99922 3.44772 8.44693 3 8.99922 3C9.5515 3 9.99922 3.44772 9.99922 4C9.99922 4.55228 9.5515 5 8.99922 5C8.44693 5 7.99922 4.55228 7.99922 4Z" fill="#413B89"/>
</svg>
